<svg version="1.1" xmlns="http://www.w3.org/2000/svg" xmlns:xlink="http://www.w3.org/1999/xlink" width="48" height="48"><defs><linearGradient x1="15.40321" y1="14.2299" x2="53.80999" y2="54.98331" gradientUnits="userSpaceOnUse" id="color-1"><stop offset="0" stop-color="#000000" stop-opacity="0.3"></stop><stop offset="1" stop-color="#000000" stop-opacity="0"></stop></linearGradient><filter id="dropshadow-base"><feColorMatrix type="matrix" values="0 0 0 0 0  0 0 0 0 0  0 0 0 0 0  0 0 0 .8 0"></feColorMatrix> <feOffset dx="0" dy="1"></feOffset> <feGaussianBlur stdDeviation="1"></feGaussianBlur> <feComposite in="SourceGraphic"></feComposite></filter><filter id="dropshadow-banner" x="-10%" y="-10%" width="120%" height="130%"><feColorMatrix type="matrix" values="0 0 0 0 0  0 0 0 0 0  0 0 0 0 0  0 0 0 .4 0"></feColorMatrix> <feOffset dx="0" dy="1"></feOffset> <feGaussianBlur stdDeviation="0.5"></feGaussianBlur> <feComposite in="SourceGraphic"></feComposite></filter></defs><g fill="none" fill-rule="nonzero" stroke="none" stroke-width="none" stroke-linecap="butt" stroke-linejoin="miter" stroke-miterlimit="10" stroke-dasharray="" stroke-dashoffset="0" font-family="none" font-weight="none" font-size="none" text-anchor="none" style="mix-blend-mode: normal"><path d="M2,24c0,-12.15026 9.84974,-22 22,-22c12.15026,0 22,9.84974 22,22c0,12.15026 -9.84974,22 -22,22c-12.15026,0 -22,-9.84974 -22,-22z" id="base 1 9" fill="#7986cb" stroke-width="1"></path><path d="M17.65097,31.55619l-1.1235,-3.36486l-1.12426,-3.65777l1.20322,-3.04187l3.04602,-5.00537l1.84168,-2.25641l3.43706,0.04886l3.50737,0.1192l16.46866,16.46866c-2.1641,6.59312 -7.35995,11.81167 -13.93888,14.00693z" fill="url(#color-1)" stroke-width="1"></path><path d="M24.93118,14.27877l3.50737,0.11919l2.06803,4.80045l2.09021,5.0787l-2.65986,6.19769l-8.54208,3.29531l-1.96726,-1.10696l-1.77662,-1.10696l-1.1235,-3.36487l-1.12426,-3.65777l1.20322,-3.04188l3.04602,-5.00538l1.84167,-2.2564z" id="path4139 1 1" fill="none" stroke-width="0"></path><g id="svg2 3" stroke-width="1"><g id="g4137 1" fill="#ff7043"><path d="M29.25238,17.03483c0.27005,0.3486 -0.03015,1.4712 -0.41109,1.6933c-0.39596,0.23086 -1.34212,-0.38487 -1.51625,-0.80885c-0.05987,-0.14577 0.10601,-0.96624 0.4751,-1.16605c0.43363,-0.23475 1.19702,-0.02351 1.45224,0.2816zM23.42461,17.23852c0.14457,-0.04445 1.09976,0.03326 1.19838,0.14793c0.24106,0.28031 0.16263,1.07233 -0.11293,1.3188c-0.32941,0.29465 -1.58718,-0.19124 -1.72529,-0.61107c-0.11129,-0.33831 0.29942,-0.75099 0.63984,-0.85566zM26.13154,18.15936c0.4846,0.01714 1.41427,0.40596 1.44548,0.88985c0.03053,0.47328 -0.8181,0.58555 -1.29226,0.59532c-0.58499,0.01205 -1.98293,0.00061 -1.93667,-0.58267c0.04136,-0.52139 1.26075,-0.92099 1.78345,-0.90251z" id="path4139 1"></path></g><g id="layer1 1" fill="#ffab91"><path d="M21.49412,14.22989l-1.84167,2.2564l-3.04602,5.00538l-1.20322,3.04188l1.12426,3.65777l1.1235,3.36487l1.77662,1.10696l1.96726,1.10696l8.54208,-3.29531l2.65986,-6.19769l-2.09021,-5.0787l-2.06803,-4.80045l-3.50737,-0.11919zM28.39719,17.15445c0.11754,-0.0108 0.27138,-0.00796 0.34367,0.08535c0.22582,0.29152 0.30841,0.92048 -0.01015,1.10621c-0.33112,0.19305 -0.8602,-0.20269 -1.00581,-0.55724c-0.05006,-0.1219 0.02495,-0.27982 0.11133,-0.37934c0.13463,-0.15512 0.35642,-0.2362 0.56096,-0.25498zM23.86746,17.41014c0.12089,-0.03717 0.27624,0.02781 0.35871,0.12371c0.20158,0.2344 0.39813,0.70608 0.1677,0.91219c-0.27547,0.2464 -0.94597,0.03072 -1.06146,-0.32036c-0.09306,-0.28291 0.25039,-0.628 0.53506,-0.71554zM26.17876,18.56147c0.40524,0.01433 1.135,-0.04181 1.1611,0.36284c0.02553,0.39578 -0.68412,0.48966 -1.08064,0.49783c-0.48919,0.01008 -1.39607,-0.07098 -1.35738,-0.55874c0.03458,-0.43601 0.83981,-0.31739 1.27691,-0.30193z" id="path3358 1"></path></g></g><path d="M2,24c0,-12.15026 9.84974,-22 22,-22c12.15026,0 22,9.84974 22,22c0,12.15026 -9.84974,22 -22,22c-12.15026,0 -22,-9.84974 -22,-22z" id="base 1 5 1" fill="none" stroke-width="1"></path><path d="M2,24c0,-12.15026 9.84974,-22 22,-22c12.15026,0 22,9.84974 22,22c0,12.15026 -9.84974,22 -22,22c-12.15026,0 -22,-9.84974 -22,-22z" id="base 1 1 1" fill="none" stroke-width="1"></path><g id="svg2 1 1" stroke-width="1" font-family="Roboto, sans-serif" font-weight="normal" font-size="14" text-anchor="start"><g id="layer1 1 1" fill="#ffab91"></g><g id="g4137 1 1" fill="#ff7043"></g></g><rect x="2" y="2" width="44" height="22" fill="none" stroke-width="1"></rect><path d="M2,24v-22h44v22z" fill="none" stroke-width="1"></path><path d="M2,24v-22h44v22z" fill="none" stroke-width="1"></path><path d="M2,24v-22h44v22z" fill="none" stroke-width="1"></path><path d="M2,24v-22h44v22z" fill="none" stroke-width="1"></path><g id="svg2 2 1" stroke-width="1" font-family="Roboto, sans-serif" font-weight="normal" font-size="14" text-anchor="start"><g id="g4137 1 1" fill="#ff7043"></g><g id="layer1 1 1" fill="#ffab91"></g></g><rect x="2" y="2" width="44" height="22" fill="none" stroke-width="1"></rect><path d="M2,24v-22h44v22z" fill="none" stroke-width="1"></path><path d="M2,24v-22h44v22z" fill="none" stroke-width="1"></path><path d="M2,24v-22h44v22z" fill="none" stroke-width="1"></path><path d="M2,24v-22h44v22z" fill="none" stroke-width="1"></path></g></svg>