<?xml version="1.0" encoding="UTF-8" standalone="no"?>
<svg
   xmlns:dc="http://purl.org/dc/elements/1.1/"
   xmlns:cc="http://creativecommons.org/ns#"
   xmlns:rdf="http://www.w3.org/1999/02/22-rdf-syntax-ns#"
   xmlns:svg="http://www.w3.org/2000/svg"
   xmlns="http://www.w3.org/2000/svg"
   xmlns:sodipodi="http://sodipodi.sourceforge.net/DTD/sodipodi-0.dtd"
   xmlns:inkscape="http://www.inkscape.org/namespaces/inkscape"
   version="1.1"
   id="svg2"
   viewBox="0 0 1200 1200"
   height="1200"
   width="1200"
   inkscape:version="0.91 r13725"
   sodipodi:docname="stone.svg">
  <sodipodi:namedview
     pagecolor="#ffffff"
     bordercolor="#666666"
     borderopacity="1"
     objecttolerance="10"
     gridtolerance="10"
     guidetolerance="10"
     inkscape:pageopacity="0"
     inkscape:pageshadow="2"
     inkscape:window-width="782"
     inkscape:window-height="480"
     id="namedview7"
     showgrid="false"
     inkscape:zoom="0.62335538"
     inkscape:cx="719.77318"
     inkscape:cy="921.63569"
     inkscape:window-x="247"
     inkscape:window-y="153"
     inkscape:window-maximized="0"
     inkscape:current-layer="svg2" />
  <defs
     id="defs4" />
  <metadata
     id="metadata7">
    <rdf:RDF>
      <cc:Work
         rdf:about="">
        <dc:format>image/svg+xml</dc:format>
        <dc:type
           rdf:resource="http://purl.org/dc/dcmitype/StillImage" />
        <dc:title />
      </cc:Work>
    </rdf:RDF>
  </metadata>
  <g
     style="fill:#ff7043;fill-opacity:1;stroke:none"
     id="g4137"
     transform="matrix(1.1958332,0,0,1.1958332,-140.95539,122.03742)">
    <path
       style="fill:#ff7043;fill-opacity:1;stroke:none"
       d="m 866.81429,71.8029 c 12.71257,16.4106 -1.41917,69.25702 -19.3523,79.71263 -18.63998,10.86772 -63.18069,-18.11784 -71.37791,-38.07684 -2.81833,-6.86221 4.99022,-45.48613 22.36549,-54.892261 20.41344,-11.050853 56.35017,-1.106627 68.36472,13.256471 z m -274.34374,9.58864 c 6.8056,-2.092667 51.7714,1.565522 56.4139,6.96392 11.34779,13.19545 7.65567,50.48009 -5.31612,62.08289 -15.50717,13.87061 -74.717,-9.00265 -81.21835,-28.76622 -5.23898,-15.92605 14.09544,-35.352994 30.12057,-40.28059 z m 127.42974,43.34882 c 22.81258,0.80669 66.57707,19.11063 68.0463,41.89013 1.43701,22.27988 -38.51214,27.565 -60.83357,28.02496 -27.53848,0.56747 -93.34694,0.0287 -91.16902,-27.4294 1.94683,-24.54454 59.35004,-43.35581 83.95629,-42.48569 z"
       id="path4139"
       inkscape:connector-curvature="0"
       sodipodi:nodetypes="cssacssssssssss" />
  </g>
  <g
     transform="translate(0,147.63784)"
     id="layer1"
     style="fill:#ffab91;fill-opacity:1">
    <path
       id="path3358"
       d="M 458.86528,-97.63784 355.1899,29.384518 183.71703,311.15791 115.98304,482.39789 179.27205,688.30921 242.51869,877.73159 342.5321,940.04685 453.27719,1002.3622 934.14621,816.85564 1083.8806,467.96209 966.21396,182.06116 849.7962,-88.176319 652.35161,-94.886218 Z M 847.46786,66.99802 c 6.61687,-0.607794 15.27719,-0.448085 19.34643,4.80488 12.71257,16.4106 17.36196,51.8174 -0.57117,62.27301 -18.63998,10.86772 -48.42409,-11.41029 -56.62131,-31.36929 -2.81833,-6.862211 1.40475,-15.752064 6.26738,-21.354533 7.5791,-8.732231 20.0645,-13.296431 31.57867,-14.354067 z M 592.47055,81.39154 c 6.8056,-2.092667 15.55065,1.565522 20.19315,6.96392 11.34779,13.19545 22.41227,39.74802 9.44048,51.35082 -15.50717,13.87061 -53.25285,1.72942 -59.7542,-18.03415 -5.23898,-15.92605 14.09544,-35.352994 30.12057,-40.28059 z m 130.11276,64.81297 c 22.81258,0.80669 63.89405,-2.35352 65.36328,20.42598 1.43701,22.27988 -38.51214,27.565 -60.83357,28.02496 -27.53848,0.56747 -78.59034,-3.99585 -76.41242,-31.45393 1.94683,-24.54454 47.27646,-17.86713 71.88271,-16.99701 z"
       style="fill:#ffab91;fill-opacity:1;stroke:none" />
  </g>
</svg>
